HIERARCHY
ROOT root
{
	OFFSET 0.000000 0.000000 0.000000
	CHANNELS 6 Xposition Yposition Zposition Zrotation Yrotation Xrotation
	JOINT lhip
	{
		OFFSET 0.058581 -0.082280 -0.017664
		CHANNELS 3 Zrotation Yrotation Xrotation
		JOINT lknee
		{
			OFFSET 0.043451 -0.386469 0.008037
			CHANNELS 3 Zrotation Yrotation Xrotation
			JOINT lankle
			{
				OFFSET -0.014790 -0.426874 -0.037428
				CHANNELS 3 Zrotation Yrotation Xrotation
				JOINT ltoe
				{
					OFFSET 0.041054 -0.060286 0.122042
					CHANNELS 3 Zrotation Yrotation Xrotation
					End Site
					{
						OFFSET 0.000000 0.000000 0.000000
					}
				}
			}
		}
	}
	JOINT rhip
	{
		OFFSET -0.060310 -0.090513 -0.013543
		CHANNELS 3 Zrotation Yrotation Xrotation
		JOINT rknee
		{
			OFFSET -0.043257 -0.383688 -0.004843
			CHANNELS 3 Zrotation Yrotation Xrotation
			JOINT rankle
			{
				OFFSET 0.019056 -0.420046 -0.034562
				CHANNELS 3 Zrotation Yrotation Xrotation
				JOINT rtoe
				{
					OFFSET -0.034840 -0.062106 0.130323
					CHANNELS 3 Zrotation Yrotation Xrotation
					End Site
					{
						OFFSET 0.000000 0.000000 0.000000
					}
				}
			}
		}
	}
	JOINT lowerback
	{
		OFFSET 0.004439 0.124404 -0.038385
		CHANNELS 3 Zrotation Yrotation Xrotation
		JOINT upperback
		{
			OFFSET 0.004488 0.137956 0.026820
			CHANNELS 3 Zrotation Yrotation Xrotation
			JOINT chest
			{
				OFFSET -0.002265 0.056032 0.002855
				CHANNELS 3 Zrotation Yrotation Xrotation
				JOINT lowerneck
				{
					OFFSET -0.013390 0.211636 -0.033468
					CHANNELS 3 Zrotation Yrotation Xrotation
					JOINT upperneck
					{
						OFFSET 0.010113 0.088937 0.050410
						CHANNELS 3 Zrotation Yrotation Xrotation
						End Site
						{
							OFFSET 0.000000 0.000000 0.000000
						}
					}
				}
				JOINT lclavicle
				{
					OFFSET 0.071702 0.114000 -0.018898
					CHANNELS 3 Zrotation Yrotation Xrotation
					JOINT lshoulder
					{
						OFFSET 0.122921 0.045205 -0.019046
						CHANNELS 3 Zrotation Yrotation Xrotation
						JOINT lelbow
						{
							OFFSET 0.255332 -0.015649 -0.022946
							CHANNELS 3 Zrotation Yrotation Xrotation
							JOINT lwrist
							{
								OFFSET 0.265709 0.012698 -0.007375
								CHANNELS 3 Zrotation Yrotation Xrotation
								End Site
								{
									OFFSET 0.000000 0.000000 0.000000
								}
							}
						}
					}
				}
				JOINT rclavicle
				{
					OFFSET -0.082954 0.112472 -0.023707
					CHANNELS 3 Zrotation Yrotation Xrotation
					JOINT rshoulder
					{
						OFFSET -0.113228 0.046853 -0.008472
						CHANNELS 3 Zrotation Yrotation Xrotation
						JOINT relbow
						{
							OFFSET -0.260127 -0.014369 -0.031269
							CHANNELS 3 Zrotation Yrotation Xrotation
							JOINT rwrist
							{
								OFFSET -0.269108 0.006794 -0.006027
								CHANNELS 3 Zrotation Yrotation Xrotation
								End Site
								{
									OFFSET 0.000000 0.000000 0.000000
								}
							}
						}
					}
				}
			}
		}
	}
}
MOTION
Frames: 17
Frame Time: 0.033333
-0.148567 1.151463 1.011440 -87.466335 0.326287 88.192795 1.599058 2.368002 14.868881 -3.767395 -11.599988 4.286192 -4.229605 7.039558 -9.797988 0.000000 -0.000000 0.000000 0.419638 1.088055 -18.940819 -2.926124 -0.472167 3.512999 5.936370 -8.515710 -6.362556 0.000000 -0.000000 0.000000 -4.868394 -4.435871 10.693114 2.826557 -6.380305 1.453138 2.763404 -3.752614 -0.093943 -2.288420 6.646237 -14.185575 9.461986 -3.341885 -1.712404 -15.022795 -14.092967 -4.433721 -27.348693 -43.841478 -9.259289 37.545698 -27.341942 -58.067637 -1.901973 -13.866107 -48.819646 30.045837 3.722070 2.972326 55.001712 -3.686416 19.152097 -14.578585 16.656690 -0.078568 11.370988 3.878331 6.599456 
-0.185017 1.156501 1.006690 -86.812887 0.194056 88.089107 2.771334 3.325281 16.249838 -4.167182 -13.144585 5.901759 -5.896473 6.398146 -9.840965 0.000000 -0.000000 0.000000 0.255340 1.075034 -18.648221 -2.925842 -0.228387 -1.340904 7.871749 -6.128233 -6.270005 0.000000 -0.000000 0.000000 -4.854132 -4.830796 11.115528 3.086196 -6.663834 1.000107 3.100806 -3.602846 0.019493 -2.878325 7.140024 -14.127210 9.372776 -3.849725 -3.035030 -13.945410 -12.965435 -5.281443 -24.044529 -44.032408 -12.001312 37.620040 -27.874082 -58.456701 -5.939224 -12.867286 -45.815276 30.471705 2.811559 2.823052 53.707104 -4.024586 18.421809 -13.313430 15.774544 0.933497 13.324633 2.692616 7.427042 
-0.222389 1.162249 1.001436 -86.362022 -0.013193 87.842088 3.134175 2.708845 17.537790 -4.514825 -14.127408 8.329537 -6.192109 7.167085 -10.341775 0.000000 -0.000000 0.000000 -0.184805 2.013327 -19.137623 -2.528088 -0.498533 0.384113 8.220051 -7.230863 -6.000896 0.000000 -0.000000 0.000000 -5.073811 -5.048474 10.999853 3.537633 -6.432867 1.855793 3.233065 -3.649359 -0.312143 -2.887227 7.517653 -14.436015 8.896017 -3.997029 -3.597591 -13.525732 -12.543610 -5.052559 -21.211877 -43.689893 -13.770252 38.341275 -27.895044 -58.300627 -7.641808 -12.949269 -43.321432 31.314307 2.565114 2.948819 52.342761 -4.207767 18.164041 -12.686735 14.521576 0.972905 15.054951 2.626810 8.510451 
-0.264228 1.169083 0.996590 -85.631718 -0.140640 87.338950 3.934822 2.725479 19.238685 -4.850177 -15.596844 10.723515 -7.481892 6.612737 -9.603940 0.000000 -0.000000 0.000000 -0.177642 2.118144 -19.296838 -1.862182 -1.670571 5.366144 7.803673 -8.545049 -6.364621 0.000000 -0.000000 0.000000 -5.226522 -5.584220 10.417062 3.847068 -6.228080 3.191363 3.221579 -3.650556 -0.668908 -2.560651 7.749495 -14.252335 8.346383 -3.845714 -4.674794 -14.145145 -11.878565 -4.801364 -19.936997 -42.561928 -14.028408 38.791357 -28.776326 -57.657445 -9.412356 -13.109503 -40.570116 32.081985 2.398060 2.992835 51.414665 -4.577177 17.853273 -12.446446 13.646195 0.354494 15.632203 1.878098 9.434180 
-0.310214 1.176801 0.990501 -84.208522 -0.160267 87.479631 4.912020 2.455422 19.398325 -5.121274 -16.221584 14.653842 -9.318171 5.797219 -8.101175 0.000000 -0.000000 0.000000 0.641745 1.877875 -18.388205 -2.159656 -2.579385 8.997852 5.272596 -8.970471 -7.144601 0.000000 -0.000000 0.000000 -4.925960 -6.050124 8.792531 3.946094 -6.562957 4.145671 3.063656 -3.757546 -1.173753 -2.175208 7.699628 -13.343632 8.007736 -3.629964 -4.761585 -14.828095 -11.162074 -4.541593 -21.174463 -40.780841 -12.844430 38.358845 -29.936722 -56.408520 -10.971427 -12.298851 -37.369650 32.214291 1.934139 3.090021 51.409257 -5.250167 17.130789 -12.141758 12.644028 0.814172 15.224539 1.586441 9.948834 
-0.356203 1.186179 0.985781 -83.376806 -0.151990 88.054107 5.687218 2.124907 17.733444 -5.665623 -15.694929 20.772614 -10.118264 4.768175 -4.563769 0.000000 -0.000000 0.000000 1.418984 1.368599 -16.889984 -2.066884 -2.774673 8.736870 1.834783 -8.906576 0.488757 0.000000 -0.000000 0.000000 -4.201978 -6.035376 6.974783 3.875358 -6.618979 4.180871 2.708414 -3.875437 -1.405543 -2.214538 6.563377 -12.757861 8.174559 -2.819222 -3.687926 -16.305578 -10.469613 -3.512590 -22.633542 -38.576679 -11.935612 36.067783 -31.617362 -54.230122 -11.040058 -12.104416 -33.859330 32.114297 0.891398 3.424771 51.526904 -5.746561 16.291005 -11.861844 12.617060 1.385938 15.208876 1.513213 9.536981 
-0.401956 1.195045 0.984988 -83.662911 0.744046 88.117464 6.148531 1.078278 15.361977 -6.374678 -14.008195 27.999501 -10.014995 6.406746 2.825696 0.000000 -0.000000 0.000000 2.513497 1.869909 -15.881445 -0.146061 -1.745111 12.050511 -2.879677 -9.826004 -0.461386 0.000000 -0.000000 0.000000 -2.504402 -5.872243 4.985737 4.083342 -5.537353 5.723745 1.949173 -4.075443 -1.421625 -1.554861 5.751184 -14.097730 7.065201 -2.270688 -1.936979 -18.545918 -8.869915 -3.608329 -25.449864 -36.504745 -7.861819 32.294483 -32.975414 -48.763943 -11.077543 -13.133625 -36.878526 32.557076 0.464144 3.095021 51.089756 -5.055645 16.891905 -11.887314 11.260410 1.587809 13.795711 1.839100 8.337652 
-0.445671 1.202625 0.987317 -83.750918 1.885867 86.973297 6.721464 -0.014362 12.134409 -6.918241 -11.525520 37.194147 -9.994145 7.352746 11.681998 0.000000 -0.000000 0.000000 3.795695 2.055934 -13.467406 0.813854 -3.896927 15.277628 -4.323738 -8.045081 -4.031401 0.000000 -0.000000 0.000000 -1.145620 -5.413352 5.801610 4.318509 -4.894824 6.517342 2.122982 -3.603591 -2.379067 -0.846360 5.017589 -14.237769 5.851110 -1.435959 -1.996595 -19.650908 -7.528026 -3.323601 -33.648585 -32.882705 -2.820506 29.945591 -33.072991 -43.842400 -22.672239 -13.124095 -39.808469 32.241836 0.772402 3.787597 51.058615 -3.397012 14.817802 -12.131203 10.140436 0.710172 16.373801 0.670145 9.796918 
-0.485024 1.209865 0.989334 -83.476977 2.030591 86.643520 6.137430 -1.717352 6.948181 -7.107076 -7.754392 46.744214 -8.909264 9.493313 12.592540 0.000000 -0.000000 0.000000 4.978119 1.605225 -10.726074 1.140486 -2.354848 15.646391 -6.099344 -9.445330 -6.205312 0.000000 -0.000000 0.000000 -0.725335 -3.796075 5.427508 4.329722 -5.047932 7.337412 2.046630 -3.287060 -1.927079 -0.600529 3.422247 -14.941262 6.397132 -0.519926 -2.620278 -20.514791 -7.666037 -1.887717 -39.820136 -30.360361 -0.160184 26.106073 -31.201161 -41.031010 -15.033867 -9.378130 -41.971714 31.605096 2.038930 4.455910 51.863867 -1.695468 14.401856 -12.301699 9.779891 0.550408 15.043483 0.428480 7.627503 
-0.522723 1.216665 0.992257 -84.087859 1.829905 85.747676 5.212729 -2.492007 2.383501 -5.371343 -3.752628 54.355652 -7.774217 9.881040 8.574573 0.000000 -0.000000 0.000000 6.319120 1.597096 -6.839103 0.086905 -1.658654 15.114379 -6.844093 -10.063769 -8.071731 0.000000 -0.000000 0.000000 -0.406553 -1.856979 6.102291 3.955967 -4.638531 7.752139 1.743316 -2.714680 -1.505235 0.357599 2.306274 -15.757488 6.670463 -1.006125 -1.428089 -21.318821 -7.320896 -1.047640 -45.491411 -28.255359 0.996613 21.060599 -27.142063 -37.695280 -10.928696 -10.447154 -41.892955 30.770277 2.922232 4.860543 53.141866 -0.316653 14.398265 -13.362061 10.664437 0.784152 12.590840 1.760938 5.780284 
-0.559909 1.221031 0.995580 -85.752520 1.341313 85.130669 4.041971 -2.332446 -1.695890 -3.889265 -0.696483 58.619772 -6.067895 10.176450 5.121839 0.000000 -0.000000 0.000000 6.761786 0.659245 -3.099898 -0.294961 0.162245 13.747347 -6.704313 -9.723641 -9.362421 0.000000 -0.000000 0.000000 0.278261 -0.098409 7.273615 2.929571 -3.639337 7.037930 1.415975 -2.058264 -1.332475 0.907287 0.420177 -15.800927 6.892031 0.749669 -0.544033 -23.472094 -5.667569 -0.970533 -50.880425 -25.195408 1.121619 18.237280 -19.865321 -34.045110 -12.500086 -6.485682 -40.361758 29.858122 3.563413 5.109243 53.489072 1.206629 13.897330 -13.419390 12.250721 1.560817 10.970820 2.122582 5.149211 
-0.595144 1.223648 0.998695 -87.897397 0.790719 85.459260 3.130974 -3.384574 -6.622897 -3.983639 2.846910 60.339697 -2.068209 10.695850 5.237975 0.000000 -0.000000 0.000000 6.265083 -0.273277 -0.437427 0.398375 2.044036 12.019574 -6.963990 -9.366283 -9.592252 0.000000 -0.000000 0.000000 1.101569 1.352290 7.102868 1.765225 -2.891953 6.901940 0.873813 -1.473562 -1.289758 1.018303 -1.911725 -15.322494 6.982559 3.733119 0.223345 -25.893377 -3.775873 -0.574522 -54.587359 -19.860164 -0.090977 18.298875 -13.076402 -35.100422 -11.268893 0.872947 -37.626111 29.009998 4.386175 4.946538 53.306867 2.983952 13.228106 -13.430910 14.570954 1.886205 14.233301 0.949517 5.981119 
-0.629374 1.225875 1.002025 -90.740047 0.308784 85.237111 2.921602 -3.090127 -10.361909 -4.213719 5.688272 59.218023 -2.432081 11.107473 -1.286498 0.000000 -0.000000 0.000000 5.737573 -1.388511 2.671474 0.532839 4.067929 10.458660 -6.255480 -7.952742 -10.153945 0.000000 -0.000000 0.000000 1.827884 2.930836 8.695927 0.629199 -2.012873 5.688042 0.322035 -0.887933 -0.442939 1.652916 -2.047814 -16.944230 6.185464 4.482280 1.495234 -28.005566 -0.913858 -0.634662 -56.367014 -13.870709 -2.175539 17.796207 -8.763437 -35.762243 -0.862506 1.940567 -33.476717 28.385257 4.561389 4.003687 52.609420 5.442077 12.621663 -12.989552 17.859016 1.565549 9.401003 2.528081 6.306141 
-0.661496 1.226959 1.005390 -93.977956 -0.255801 85.746969 2.912739 -3.655789 -13.929945 -4.103577 8.991278 54.994541 -1.367490 10.850980 -3.362978 0.000000 -0.000000 0.000000 4.517538 -1.791922 4.894060 0.858372 4.917278 9.177828 -4.614354 -5.929411 -10.058495 0.000000 -0.000000 0.000000 2.113890 4.432102 9.622740 -0.198342 -0.750540 5.273524 -0.181084 0.110613 -0.483905 1.961943 -1.652808 -17.780359 4.818217 3.919414 1.177871 -29.686558 4.114469 -0.325011 -55.917688 -8.180823 -5.919296 17.960425 -8.495895 -33.670395 -10.174675 -6.487108 -31.763629 28.334587 3.246307 3.853106 51.142123 7.767128 11.522502 -13.734670 23.424456 1.957942 11.090569 4.027994 5.644357 
-0.692730 1.228762 1.008021 -97.149784 -0.565446 86.335610 3.292301 -3.825610 -16.727272 -3.961406 11.162218 48.271892 -1.679370 11.418889 -6.564957 0.000000 -0.000000 0.000000 3.601757 -1.822054 6.995120 0.930391 7.029699 7.697551 -3.630426 -4.530968 -9.913161 0.000000 -0.000000 0.000000 1.984718 6.223926 10.094501 -0.593739 0.484875 5.582977 -0.393390 0.939311 -0.263217 1.907471 -0.886364 -19.062593 3.580218 2.314613 -0.342296 -28.967612 8.957012 -1.147227 -55.146553 -1.420195 -8.334538 17.482577 -11.203781 -31.090149 -15.162787 -10.085964 -30.477367 28.093011 2.045390 2.892694 49.962680 9.581503 11.243017 -14.980749 29.322101 0.191951 9.568815 5.483694 4.548847 
-0.725250 1.229525 1.009020 -99.474359 -0.871491 87.005041 3.370047 -4.519302 -18.225662 -4.273055 11.299448 38.526484 -0.861894 13.231765 -6.508289 0.000000 -0.000000 0.000000 2.446256 -1.990910 9.140993 1.224685 9.215367 5.987804 -2.973637 -4.157661 -9.255264 0.000000 -0.000000 0.000000 1.596637 7.786132 9.855226 -0.645025 1.478121 5.905074 -0.527984 2.321461 0.159756 1.272557 -0.793257 -18.880093 2.627110 -0.002290 -3.067994 -26.571332 13.054929 -1.399715 -53.088187 5.046394 -8.936091 15.276276 -16.182788 -25.567891 -15.065091 -9.939584 -30.968462 27.281587 1.047220 2.885154 49.293703 10.822049 10.393619 -17.028873 34.488605 -2.251424 6.735264 6.527726 2.779230 
-0.755899 1.230743 1.008751 -101.033172 -0.796005 88.305817 3.468251 -4.366000 -20.012616 -3.271403 10.409173 28.140514 -0.723970 14.785536 -5.553954 0.000000 -0.000000 0.000000 1.594984 -2.805004 10.057271 1.323597 10.818435 5.316684 -0.565017 -3.760733 -8.440236 0.000000 -0.000000 0.000000 1.225281 9.262625 8.845985 -0.522474 2.154142 6.472241 -0.671124 3.521959 0.234996 0.796662 0.354333 -18.972119 1.888770 -2.747411 -4.749369 -24.042798 15.813000 -1.602805 -48.782967 10.575798 -9.094642 11.985521 -19.747994 -18.242240 -16.989052 -9.599917 -26.978516 26.980853 0.341931 2.261959 48.233903 11.219270 9.778236 -18.729843 38.437761 -5.213142 3.020528 7.297354 1.249256 
